<svg width="800" height="600" viewBox="0 0 627 494" fill="none" xmlns="http://www.w3.org/2000/svg">
<g filter="url(#filter0_d_5_20)">
<path d="M581.663 72.44C571.935 72.44 563.743 68.984 557.087 62.072C550.431 55.096 547.103 46.552 547.103 36.44C547.103 26.392 550.431 17.912 557.087 11C563.743 4.08799 571.935 0.631989 581.663 0.631989C590.751 0.631989 598.495 3.38399 604.895 8.88799C611.359 14.392 615.199 21.56 616.415 30.392H600.959C600.127 25.464 597.951 21.464 594.431 18.392C590.911 15.256 586.719 13.688 581.855 13.688C575.967 13.688 571.199 15.8 567.551 20.024C563.903 24.248 562.079 29.72 562.079 36.44C562.079 43.224 563.903 48.76 567.551 53.048C571.199 57.272 575.967 59.384 581.855 59.384C586.719 59.384 590.879 57.848 594.335 54.776C597.855 51.64 600.063 47.576 600.959 42.584H616.415C615.199 51.48 611.359 58.68 604.895 64.184C598.495 69.688 590.751 72.44 581.663 72.44Z" fill="#333333"/>
</g>
<g filter="url(#filter1_d_5_20)">
<path d="M537.04 71H522.448V2.07199H537.04V71Z" fill="#333333"/>
</g>
<g filter="url(#filter2_d_5_20)">
<path d="M471.321 71H456.729V2.07199H483.705C492.409 2.07199 499.161 4.02399 503.961 7.92799C508.761 11.832 511.161 17.336 511.161 24.44C511.161 29.112 509.785 33.208 507.033 36.728C504.345 40.184 500.537 42.744 495.609 44.408L513.369 71H495.993L480.441 46.616H471.321V71ZM471.321 14.168V34.616H483.033C492.057 34.616 496.569 31.224 496.569 24.44C496.569 17.592 492.057 14.168 483.033 14.168H471.321Z" fill="#333333"/>
</g>
<g filter="url(#filter3_d_5_20)">
<path d="M445.441 58.328V71H399.073V2.07199H444.769V14.744H413.665V29.24H441.889V41.816H413.665V58.328H445.441Z" fill="#333333"/>
</g>
<g filter="url(#filter4_d_5_20)">
<path d="M321.244 71L303.196 25.208V71H289.948V2.07199H307.42L327.388 53.144L347.452 2.07199H364.924V71H351.676V24.824L333.436 71H321.244Z" fill="#333333"/>
</g>
<g filter="url(#filter5_d_5_20)">
<path d="M279.817 12.344C279.817 17.4 277.801 21.528 273.769 24.728C269.801 27.928 265.129 29.176 259.753 28.472V21.848C262.633 22.168 265.065 21.816 267.049 20.792C269.033 19.768 270.345 18.136 270.985 15.896C270.281 16.152 269.545 16.28 268.777 16.28C266.665 16.28 264.905 15.608 263.497 14.264C262.089 12.856 261.385 11.128 261.385 9.07999C261.385 6.83999 262.185 5.01599 263.785 3.60799C265.385 2.13599 267.497 1.39999 270.121 1.39999C273.065 1.39999 275.401 2.39199 277.129 4.37599C278.921 6.29599 279.817 8.95199 279.817 12.344Z" fill="#333333"/>
</g>
<g filter="url(#filter6_d_5_20)">
<path d="M249.977 71H235.385V2.07199H249.977V71Z" fill="#333333"/>
</g>
<g filter="url(#filter7_d_5_20)">
<path d="M204.6 65.816C204.6 71.512 202.552 76.12 198.456 79.64C194.36 83.16 189.24 84.952 183.096 85.016V77.912C186.616 77.848 189.496 77.048 191.736 75.512C194.04 74.04 195.384 71.992 195.768 69.368C195.192 69.56 194.52 69.656 193.752 69.656C191.64 69.656 189.848 68.888 188.376 67.352C186.904 65.816 186.168 63.96 186.168 61.784C186.168 59.288 186.968 57.272 188.568 55.736C190.232 54.2 192.312 53.432 194.808 53.432C197.944 53.432 200.344 54.488 202.008 56.6C203.736 58.712 204.6 61.784 204.6 65.816Z" fill="#333333"/>
</g>
<g filter="url(#filter8_d_5_20)">
<path d="M167.427 45.08V71H152.835V45.08L128.451 2.07199H144.195L160.611 31.736L177.315 2.07199H192.003L167.427 45.08Z" fill="#333333"/>
</g>
<g filter="url(#filter9_d_5_20)">
<path d="M123.691 58.328V71H77.3228V2.07199H123.019V14.744H91.9147V29.24H120.139V41.816H91.9147V58.328H123.691Z" fill="#333333"/>
</g>
<g filter="url(#filter10_d_5_20)">
<path d="M18.696 71H4.104V2.07199H18.696V29.24H48.552V2.07199H63.144V71H48.552V41.816H18.696V71Z" fill="#333333"/>
</g>
<g filter="url(#filter11_d_5_20)">
<path d="M588.033 472.44C578.305 472.44 570.113 468.984 563.457 462.072C556.801 455.096 553.473 446.552 553.473 436.44C553.473 426.392 556.801 417.912 563.457 411C570.113 404.088 578.305 400.632 588.033 400.632C597.121 400.632 604.865 403.384 611.265 408.888C617.729 414.392 621.569 421.56 622.785 430.392H607.329C606.497 425.464 604.321 421.464 600.801 418.392C597.281 415.256 593.089 413.688 588.225 413.688C582.337 413.688 577.569 415.8 573.921 420.024C570.273 424.248 568.449 429.72 568.449 436.44C568.449 443.224 570.273 448.76 573.921 453.048C577.569 457.272 582.337 459.384 588.225 459.384C593.089 459.384 597.249 457.848 600.705 454.776C604.225 451.64 606.433 447.576 607.329 442.584H622.785C621.569 451.48 617.729 458.68 611.265 464.184C604.865 469.688 597.121 472.44 588.033 472.44Z" fill="#333333"/>
</g>
<g filter="url(#filter12_d_5_20)">
<path d="M543.409 471H528.817V402.072H543.409V471Z" fill="#333333"/>
</g>
<g filter="url(#filter13_d_5_20)">
<path d="M477.69 471H463.098V402.072H490.074C498.778 402.072 505.53 404.024 510.33 407.928C515.13 411.832 517.53 417.336 517.53 424.44C517.53 429.112 516.154 433.208 513.402 436.728C510.714 440.184 506.906 442.744 501.978 444.408L519.738 471H502.362L486.81 446.616H477.69V471ZM477.69 414.168V434.616H489.402C498.426 434.616 502.938 431.224 502.938 424.44C502.938 417.592 498.426 414.168 489.402 414.168H477.69Z" fill="#333333"/>
</g>
<g filter="url(#filter14_d_5_20)">
<path d="M451.81 458.328V471H405.442V402.072H451.138V414.744H420.034V429.24H448.258V441.816H420.034V458.328H451.81Z" fill="#333333"/>
</g>
<g filter="url(#filter15_d_5_20)">
<path d="M327.613 471L309.565 425.208V471H296.317V402.072H313.789L333.757 453.144L353.821 402.072H371.293V471H358.045V424.824L339.805 471H327.613Z" fill="#333333"/>
</g>
<g filter="url(#filter16_d_5_20)">
<path d="M286.186 412.344C286.186 417.4 284.17 421.528 280.138 424.728C276.17 427.928 271.498 429.176 266.122 428.472V421.848C269.002 422.168 271.434 421.816 273.418 420.792C275.402 419.768 276.714 418.136 277.354 415.896C276.65 416.152 275.914 416.28 275.146 416.28C273.034 416.28 271.274 415.608 269.866 414.264C268.458 412.856 267.754 411.128 267.754 409.08C267.754 406.84 268.554 405.016 270.154 403.608C271.754 402.136 273.866 401.4 276.49 401.4C279.434 401.4 281.77 402.392 283.498 404.376C285.29 406.296 286.186 408.952 286.186 412.344Z" fill="#333333"/>
</g>
<g filter="url(#filter17_d_5_20)">
<path d="M256.347 471H241.755V402.072H256.347V471Z" fill="#333333"/>
</g>
<g filter="url(#filter18_d_5_20)">
<path d="M210.969 465.816C210.969 471.512 208.921 476.12 204.825 479.64C200.729 483.16 195.609 484.952 189.465 485.016V477.912C192.985 477.848 195.865 477.048 198.105 475.512C200.409 474.04 201.753 471.992 202.137 469.368C201.561 469.56 200.889 469.656 200.121 469.656C198.009 469.656 196.217 468.888 194.745 467.352C193.273 465.816 192.537 463.96 192.537 461.784C192.537 459.288 193.337 457.272 194.937 455.736C196.601 454.2 198.681 453.432 201.177 453.432C204.313 453.432 206.713 454.488 208.377 456.6C210.105 458.712 210.969 461.784 210.969 465.816Z" fill="#333333"/>
</g>
<g filter="url(#filter19_d_5_20)">
<path d="M173.796 445.08V471H159.204V445.08L134.82 402.072H150.564L166.98 431.736L183.684 402.072H198.372L173.796 445.08Z" fill="#333333"/>
</g>
<g filter="url(#filter20_d_5_20)">
<path d="M130.06 458.328V471H83.6922V402.072H129.388V414.744H98.2842V429.24H126.508V441.816H98.2842V458.328H130.06Z" fill="#333333"/>
</g>
<g filter="url(#filter21_d_5_20)">
<path d="M25.0654 471H10.4734V402.072H25.0654V429.24H54.9214V402.072H69.5134V471H54.9214V441.816H25.0654V471Z" fill="#333333"/>
</g>
<g filter="url(#filter22_d_5_20)">
<path d="M581.663 272.44C571.935 272.44 563.743 268.984 557.087 262.072C550.431 255.096 547.103 246.552 547.103 236.44C547.103 226.392 550.431 217.912 557.087 211C563.743 204.088 571.935 200.632 581.663 200.632C590.751 200.632 598.495 203.384 604.895 208.888C611.359 214.392 615.199 221.56 616.415 230.392H600.959C600.127 225.464 597.951 221.464 594.431 218.392C590.911 215.256 586.719 213.688 581.855 213.688C575.967 213.688 571.199 215.8 567.551 220.024C563.903 224.248 562.079 229.72 562.079 236.44C562.079 243.224 563.903 248.76 567.551 253.048C571.199 257.272 575.967 259.384 581.855 259.384C586.719 259.384 590.879 257.848 594.335 254.776C597.855 251.64 600.063 247.576 600.959 242.584H616.415C615.199 251.48 611.359 258.68 604.895 264.184C598.495 269.688 590.751 272.44 581.663 272.44Z" fill="#F2F2F2"/>
</g>
<g filter="url(#filter23_d_5_20)">
<path d="M537.04 271H522.448V202.072H537.04V271Z" fill="#F2F2F2"/>
</g>
<g filter="url(#filter24_d_5_20)">
<path d="M471.321 271H456.729V202.072H483.705C492.409 202.072 499.161 204.024 503.961 207.928C508.761 211.832 511.161 217.336 511.161 224.44C511.161 229.112 509.785 233.208 507.033 236.728C504.345 240.184 500.537 242.744 495.609 244.408L513.369 271H495.993L480.441 246.616H471.321V271ZM471.321 214.168V234.616H483.033C492.057 234.616 496.569 231.224 496.569 224.44C496.569 217.592 492.057 214.168 483.033 214.168H471.321Z" fill="#F2F2F2"/>
</g>
<g filter="url(#filter25_d_5_20)">
<path d="M445.441 258.328V271H399.073V202.072H444.769V214.744H413.665V229.24H441.889V241.816H413.665V258.328H445.441Z" fill="#F2F2F2"/>
</g>
<g filter="url(#filter26_d_5_20)">
<path d="M321.244 271L303.196 225.208V271H289.948V202.072H307.42L327.388 253.144L347.452 202.072H364.924V271H351.676V224.824L333.436 271H321.244Z" fill="#F2F2F2"/>
</g>
<g filter="url(#filter27_d_5_20)">
<path d="M279.817 212.344C279.817 217.4 277.801 221.528 273.769 224.728C269.801 227.928 265.129 229.176 259.753 228.472V221.848C262.633 222.168 265.065 221.816 267.049 220.792C269.033 219.768 270.345 218.136 270.985 215.896C270.281 216.152 269.545 216.28 268.777 216.28C266.665 216.28 264.905 215.608 263.497 214.264C262.089 212.856 261.385 211.128 261.385 209.08C261.385 206.84 262.185 205.016 263.785 203.608C265.385 202.136 267.497 201.4 270.121 201.4C273.065 201.4 275.401 202.392 277.129 204.376C278.921 206.296 279.817 208.952 279.817 212.344Z" fill="#F2F2F2"/>
</g>
<g filter="url(#filter28_d_5_20)">
<path d="M249.977 271H235.385V202.072H249.977V271Z" fill="#F2F2F2"/>
</g>
<g filter="url(#filter29_d_5_20)">
<path d="M204.6 265.816C204.6 271.512 202.552 276.12 198.456 279.64C194.36 283.16 189.24 284.952 183.096 285.016V277.912C186.616 277.848 189.496 277.048 191.736 275.512C194.04 274.04 195.384 271.992 195.768 269.368C195.192 269.56 194.52 269.656 193.752 269.656C191.64 269.656 189.848 268.888 188.376 267.352C186.904 265.816 186.168 263.96 186.168 261.784C186.168 259.288 186.968 257.272 188.568 255.736C190.232 254.2 192.312 253.432 194.808 253.432C197.944 253.432 200.344 254.488 202.008 256.6C203.736 258.712 204.6 261.784 204.6 265.816Z" fill="#F2F2F2"/>
</g>
<g filter="url(#filter30_d_5_20)">
<path d="M167.427 245.08V271H152.835V245.08L128.451 202.072H144.195L160.611 231.736L177.315 202.072H192.003L167.427 245.08Z" fill="#F2F2F2"/>
</g>
<g filter="url(#filter31_d_5_20)">
<path d="M123.691 258.328V271H77.3228V202.072H123.019V214.744H91.9147V229.24H120.139V241.816H91.9147V258.328H123.691Z" fill="#F2F2F2"/>
</g>
<g filter="url(#filter32_d_5_20)">
<path d="M18.696 271H4.104V202.072H18.696V229.24H48.552V202.072H63.144V271H48.552V241.816H18.696V271Z" fill="#F2F2F2"/>
</g>
<defs>
<filter id="filter0_d_5_20" x="543.103" y="0.631989" width="77.312" height="79.808" filterUnits="userSpaceOnUse" color-interpolation-filters="sRGB">
<feFlood flood-opacity="0" result="BackgroundImageFix"/>
<feColorMatrix in="SourceAlpha" type="matrix" values="0 0 0 0 0 0 0 0 0 0 0 0 0 0 0 0 0 0 127 0" result="hardAlpha"/>
<feOffset dy="4"/>
<feGaussianBlur stdDeviation="2"/>
<feComposite in2="hardAlpha" operator="out"/>
<feColorMatrix type="matrix" values="0 0 0 0 0 0 0 0 0 0 0 0 0 0 0 0 0 0 0.25 0"/>
<feBlend mode="normal" in2="BackgroundImageFix" result="effect1_dropShadow_5_20"/>
<feBlend mode="normal" in="SourceGraphic" in2="effect1_dropShadow_5_20" result="shape"/>
</filter>
<filter id="filter1_d_5_20" x="518.448" y="2.07199" width="22.592" height="76.928" filterUnits="userSpaceOnUse" color-interpolation-filters="sRGB">
<feFlood flood-opacity="0" result="BackgroundImageFix"/>
<feColorMatrix in="SourceAlpha" type="matrix" values="0 0 0 0 0 0 0 0 0 0 0 0 0 0 0 0 0 0 127 0" result="hardAlpha"/>
<feOffset dy="4"/>
<feGaussianBlur stdDeviation="2"/>
<feComposite in2="hardAlpha" operator="out"/>
<feColorMatrix type="matrix" values="0 0 0 0 0 0 0 0 0 0 0 0 0 0 0 0 0 0 0.25 0"/>
<feBlend mode="normal" in2="BackgroundImageFix" result="effect1_dropShadow_5_20"/>
<feBlend mode="normal" in="SourceGraphic" in2="effect1_dropShadow_5_20" result="shape"/>
</filter>
<filter id="filter2_d_5_20" x="452.729" y="2.07199" width="64.64" height="76.928" filterUnits="userSpaceOnUse" color-interpolation-filters="sRGB">
<feFlood flood-opacity="0" result="BackgroundImageFix"/>
<feColorMatrix in="SourceAlpha" type="matrix" values="0 0 0 0 0 0 0 0 0 0 0 0 0 0 0 0 0 0 127 0" result="hardAlpha"/>
<feOffset dy="4"/>
<feGaussianBlur stdDeviation="2"/>
<feComposite in2="hardAlpha" operator="out"/>
<feColorMatrix type="matrix" values="0 0 0 0 0 0 0 0 0 0 0 0 0 0 0 0 0 0 0.25 0"/>
<feBlend mode="normal" in2="BackgroundImageFix" result="effect1_dropShadow_5_20"/>
<feBlend mode="normal" in="SourceGraphic" in2="effect1_dropShadow_5_20" result="shape"/>
</filter>
<filter id="filter3_d_5_20" x="395.073" y="2.07199" width="54.368" height="76.928" filterUnits="userSpaceOnUse" color-interpolation-filters="sRGB">
<feFlood flood-opacity="0" result="BackgroundImageFix"/>
<feColorMatrix in="SourceAlpha" type="matrix" values="0 0 0 0 0 0 0 0 0 0 0 0 0 0 0 0 0 0 127 0" result="hardAlpha"/>
<feOffset dy="4"/>
<feGaussianBlur stdDeviation="2"/>
<feComposite in2="hardAlpha" operator="out"/>
<feColorMatrix type="matrix" values="0 0 0 0 0 0 0 0 0 0 0 0 0 0 0 0 0 0 0.25 0"/>
<feBlend mode="normal" in2="BackgroundImageFix" result="effect1_dropShadow_5_20"/>
<feBlend mode="normal" in="SourceGraphic" in2="effect1_dropShadow_5_20" result="shape"/>
</filter>
<filter id="filter4_d_5_20" x="285.948" y="2.07199" width="82.976" height="76.928" filterUnits="userSpaceOnUse" color-interpolation-filters="sRGB">
<feFlood flood-opacity="0" result="BackgroundImageFix"/>
<feColorMatrix in="SourceAlpha" type="matrix" values="0 0 0 0 0 0 0 0 0 0 0 0 0 0 0 0 0 0 127 0" result="hardAlpha"/>
<feOffset dy="4"/>
<feGaussianBlur stdDeviation="2"/>
<feComposite in2="hardAlpha" operator="out"/>
<feColorMatrix type="matrix" values="0 0 0 0 0 0 0 0 0 0 0 0 0 0 0 0 0 0 0.25 0"/>
<feBlend mode="normal" in2="BackgroundImageFix" result="effect1_dropShadow_5_20"/>
<feBlend mode="normal" in="SourceGraphic" in2="effect1_dropShadow_5_20" result="shape"/>
</filter>
<filter id="filter5_d_5_20" x="255.753" y="1.39999" width="28.064" height="35.2624" filterUnits="userSpaceOnUse" color-interpolation-filters="sRGB">
<feFlood flood-opacity="0" result="BackgroundImageFix"/>
<feColorMatrix in="SourceAlpha" type="matrix" values="0 0 0 0 0 0 0 0 0 0 0 0 0 0 0 0 0 0 127 0" result="hardAlpha"/>
<feOffset dy="4"/>
<feGaussianBlur stdDeviation="2"/>
<feComposite in2="hardAlpha" operator="out"/>
<feColorMatrix type="matrix" values="0 0 0 0 0 0 0 0 0 0 0 0 0 0 0 0 0 0 0.25 0"/>
<feBlend mode="normal" in2="BackgroundImageFix" result="effect1_dropShadow_5_20"/>
<feBlend mode="normal" in="SourceGraphic" in2="effect1_dropShadow_5_20" result="shape"/>
</filter>
<filter id="filter6_d_5_20" x="231.385" y="2.07199" width="22.592" height="76.928" filterUnits="userSpaceOnUse" color-interpolation-filters="sRGB">
<feFlood flood-opacity="0" result="BackgroundImageFix"/>
<feColorMatrix in="SourceAlpha" type="matrix" values="0 0 0 0 0 0 0 0 0 0 0 0 0 0 0 0 0 0 127 0" result="hardAlpha"/>
<feOffset dy="4"/>
<feGaussianBlur stdDeviation="2"/>
<feComposite in2="hardAlpha" operator="out"/>
<feColorMatrix type="matrix" values="0 0 0 0 0 0 0 0 0 0 0 0 0 0 0 0 0 0 0.25 0"/>
<feBlend mode="normal" in2="BackgroundImageFix" result="effect1_dropShadow_5_20"/>
<feBlend mode="normal" in="SourceGraphic" in2="effect1_dropShadow_5_20" result="shape"/>
</filter>
<filter id="filter7_d_5_20" x="179.096" y="53.432" width="29.504" height="39.584" filterUnits="userSpaceOnUse" color-interpolation-filters="sRGB">
<feFlood flood-opacity="0" result="BackgroundImageFix"/>
<feColorMatrix in="SourceAlpha" type="matrix" values="0 0 0 0 0 0 0 0 0 0 0 0 0 0 0 0 0 0 127 0" result="hardAlpha"/>
<feOffset dy="4"/>
<feGaussianBlur stdDeviation="2"/>
<feComposite in2="hardAlpha" operator="out"/>
<feColorMatrix type="matrix" values="0 0 0 0 0 0 0 0 0 0 0 0 0 0 0 0 0 0 0.25 0"/>
<feBlend mode="normal" in2="BackgroundImageFix" result="effect1_dropShadow_5_20"/>
<feBlend mode="normal" in="SourceGraphic" in2="effect1_dropShadow_5_20" result="shape"/>
</filter>
<filter id="filter8_d_5_20" x="124.451" y="2.07199" width="71.552" height="76.928" filterUnits="userSpaceOnUse" color-interpolation-filters="sRGB">
<feFlood flood-opacity="0" result="BackgroundImageFix"/>
<feColorMatrix in="SourceAlpha" type="matrix" values="0 0 0 0 0 0 0 0 0 0 0 0 0 0 0 0 0 0 127 0" result="hardAlpha"/>
<feOffset dy="4"/>
<feGaussianBlur stdDeviation="2"/>
<feComposite in2="hardAlpha" operator="out"/>
<feColorMatrix type="matrix" values="0 0 0 0 0 0 0 0 0 0 0 0 0 0 0 0 0 0 0.25 0"/>
<feBlend mode="normal" in2="BackgroundImageFix" result="effect1_dropShadow_5_20"/>
<feBlend mode="normal" in="SourceGraphic" in2="effect1_dropShadow_5_20" result="shape"/>
</filter>
<filter id="filter9_d_5_20" x="73.3228" y="2.07199" width="54.368" height="76.928" filterUnits="userSpaceOnUse" color-interpolation-filters="sRGB">
<feFlood flood-opacity="0" result="BackgroundImageFix"/>
<feColorMatrix in="SourceAlpha" type="matrix" values="0 0 0 0 0 0 0 0 0 0 0 0 0 0 0 0 0 0 127 0" result="hardAlpha"/>
<feOffset dy="4"/>
<feGaussianBlur stdDeviation="2"/>
<feComposite in2="hardAlpha" operator="out"/>
<feColorMatrix type="matrix" values="0 0 0 0 0 0 0 0 0 0 0 0 0 0 0 0 0 0 0.25 0"/>
<feBlend mode="normal" in2="BackgroundImageFix" result="effect1_dropShadow_5_20"/>
<feBlend mode="normal" in="SourceGraphic" in2="effect1_dropShadow_5_20" result="shape"/>
</filter>
<filter id="filter10_d_5_20" x="0.104" y="2.07199" width="67.04" height="76.928" filterUnits="userSpaceOnUse" color-interpolation-filters="sRGB">
<feFlood flood-opacity="0" result="BackgroundImageFix"/>
<feColorMatrix in="SourceAlpha" type="matrix" values="0 0 0 0 0 0 0 0 0 0 0 0 0 0 0 0 0 0 127 0" result="hardAlpha"/>
<feOffset dy="4"/>
<feGaussianBlur stdDeviation="2"/>
<feComposite in2="hardAlpha" operator="out"/>
<feColorMatrix type="matrix" values="0 0 0 0 0 0 0 0 0 0 0 0 0 0 0 0 0 0 0.25 0"/>
<feBlend mode="normal" in2="BackgroundImageFix" result="effect1_dropShadow_5_20"/>
<feBlend mode="normal" in="SourceGraphic" in2="effect1_dropShadow_5_20" result="shape"/>
</filter>
<filter id="filter11_d_5_20" x="549.473" y="400.632" width="77.312" height="79.808" filterUnits="userSpaceOnUse" color-interpolation-filters="sRGB">
<feFlood flood-opacity="0" result="BackgroundImageFix"/>
<feColorMatrix in="SourceAlpha" type="matrix" values="0 0 0 0 0 0 0 0 0 0 0 0 0 0 0 0 0 0 127 0" result="hardAlpha"/>
<feOffset dy="4"/>
<feGaussianBlur stdDeviation="2"/>
<feComposite in2="hardAlpha" operator="out"/>
<feColorMatrix type="matrix" values="0 0 0 0 0 0 0 0 0 0 0 0 0 0 0 0 0 0 0.25 0"/>
<feBlend mode="normal" in2="BackgroundImageFix" result="effect1_dropShadow_5_20"/>
<feBlend mode="normal" in="SourceGraphic" in2="effect1_dropShadow_5_20" result="shape"/>
</filter>
<filter id="filter12_d_5_20" x="524.817" y="402.072" width="22.592" height="76.928" filterUnits="userSpaceOnUse" color-interpolation-filters="sRGB">
<feFlood flood-opacity="0" result="BackgroundImageFix"/>
<feColorMatrix in="SourceAlpha" type="matrix" values="0 0 0 0 0 0 0 0 0 0 0 0 0 0 0 0 0 0 127 0" result="hardAlpha"/>
<feOffset dy="4"/>
<feGaussianBlur stdDeviation="2"/>
<feComposite in2="hardAlpha" operator="out"/>
<feColorMatrix type="matrix" values="0 0 0 0 0 0 0 0 0 0 0 0 0 0 0 0 0 0 0.25 0"/>
<feBlend mode="normal" in2="BackgroundImageFix" result="effect1_dropShadow_5_20"/>
<feBlend mode="normal" in="SourceGraphic" in2="effect1_dropShadow_5_20" result="shape"/>
</filter>
<filter id="filter13_d_5_20" x="459.098" y="402.072" width="64.64" height="76.928" filterUnits="userSpaceOnUse" color-interpolation-filters="sRGB">
<feFlood flood-opacity="0" result="BackgroundImageFix"/>
<feColorMatrix in="SourceAlpha" type="matrix" values="0 0 0 0 0 0 0 0 0 0 0 0 0 0 0 0 0 0 127 0" result="hardAlpha"/>
<feOffset dy="4"/>
<feGaussianBlur stdDeviation="2"/>
<feComposite in2="hardAlpha" operator="out"/>
<feColorMatrix type="matrix" values="0 0 0 0 0 0 0 0 0 0 0 0 0 0 0 0 0 0 0.25 0"/>
<feBlend mode="normal" in2="BackgroundImageFix" result="effect1_dropShadow_5_20"/>
<feBlend mode="normal" in="SourceGraphic" in2="effect1_dropShadow_5_20" result="shape"/>
</filter>
<filter id="filter14_d_5_20" x="401.442" y="402.072" width="54.368" height="76.928" filterUnits="userSpaceOnUse" color-interpolation-filters="sRGB">
<feFlood flood-opacity="0" result="BackgroundImageFix"/>
<feColorMatrix in="SourceAlpha" type="matrix" values="0 0 0 0 0 0 0 0 0 0 0 0 0 0 0 0 0 0 127 0" result="hardAlpha"/>
<feOffset dy="4"/>
<feGaussianBlur stdDeviation="2"/>
<feComposite in2="hardAlpha" operator="out"/>
<feColorMatrix type="matrix" values="0 0 0 0 0 0 0 0 0 0 0 0 0 0 0 0 0 0 0.25 0"/>
<feBlend mode="normal" in2="BackgroundImageFix" result="effect1_dropShadow_5_20"/>
<feBlend mode="normal" in="SourceGraphic" in2="effect1_dropShadow_5_20" result="shape"/>
</filter>
<filter id="filter15_d_5_20" x="292.317" y="402.072" width="82.976" height="76.928" filterUnits="userSpaceOnUse" color-interpolation-filters="sRGB">
<feFlood flood-opacity="0" result="BackgroundImageFix"/>
<feColorMatrix in="SourceAlpha" type="matrix" values="0 0 0 0 0 0 0 0 0 0 0 0 0 0 0 0 0 0 127 0" result="hardAlpha"/>
<feOffset dy="4"/>
<feGaussianBlur stdDeviation="2"/>
<feComposite in2="hardAlpha" operator="out"/>
<feColorMatrix type="matrix" values="0 0 0 0 0 0 0 0 0 0 0 0 0 0 0 0 0 0 0.25 0"/>
<feBlend mode="normal" in2="BackgroundImageFix" result="effect1_dropShadow_5_20"/>
<feBlend mode="normal" in="SourceGraphic" in2="effect1_dropShadow_5_20" result="shape"/>
</filter>
<filter id="filter16_d_5_20" x="262.122" y="401.4" width="28.064" height="35.2624" filterUnits="userSpaceOnUse" color-interpolation-filters="sRGB">
<feFlood flood-opacity="0" result="BackgroundImageFix"/>
<feColorMatrix in="SourceAlpha" type="matrix" values="0 0 0 0 0 0 0 0 0 0 0 0 0 0 0 0 0 0 127 0" result="hardAlpha"/>
<feOffset dy="4"/>
<feGaussianBlur stdDeviation="2"/>
<feComposite in2="hardAlpha" operator="out"/>
<feColorMatrix type="matrix" values="0 0 0 0 0 0 0 0 0 0 0 0 0 0 0 0 0 0 0.25 0"/>
<feBlend mode="normal" in2="BackgroundImageFix" result="effect1_dropShadow_5_20"/>
<feBlend mode="normal" in="SourceGraphic" in2="effect1_dropShadow_5_20" result="shape"/>
</filter>
<filter id="filter17_d_5_20" x="237.755" y="402.072" width="22.592" height="76.928" filterUnits="userSpaceOnUse" color-interpolation-filters="sRGB">
<feFlood flood-opacity="0" result="BackgroundImageFix"/>
<feColorMatrix in="SourceAlpha" type="matrix" values="0 0 0 0 0 0 0 0 0 0 0 0 0 0 0 0 0 0 127 0" result="hardAlpha"/>
<feOffset dy="4"/>
<feGaussianBlur stdDeviation="2"/>
<feComposite in2="hardAlpha" operator="out"/>
<feColorMatrix type="matrix" values="0 0 0 0 0 0 0 0 0 0 0 0 0 0 0 0 0 0 0.25 0"/>
<feBlend mode="normal" in2="BackgroundImageFix" result="effect1_dropShadow_5_20"/>
<feBlend mode="normal" in="SourceGraphic" in2="effect1_dropShadow_5_20" result="shape"/>
</filter>
<filter id="filter18_d_5_20" x="185.465" y="453.432" width="29.504" height="39.584" filterUnits="userSpaceOnUse" color-interpolation-filters="sRGB">
<feFlood flood-opacity="0" result="BackgroundImageFix"/>
<feColorMatrix in="SourceAlpha" type="matrix" values="0 0 0 0 0 0 0 0 0 0 0 0 0 0 0 0 0 0 127 0" result="hardAlpha"/>
<feOffset dy="4"/>
<feGaussianBlur stdDeviation="2"/>
<feComposite in2="hardAlpha" operator="out"/>
<feColorMatrix type="matrix" values="0 0 0 0 0 0 0 0 0 0 0 0 0 0 0 0 0 0 0.25 0"/>
<feBlend mode="normal" in2="BackgroundImageFix" result="effect1_dropShadow_5_20"/>
<feBlend mode="normal" in="SourceGraphic" in2="effect1_dropShadow_5_20" result="shape"/>
</filter>
<filter id="filter19_d_5_20" x="130.82" y="402.072" width="71.552" height="76.928" filterUnits="userSpaceOnUse" color-interpolation-filters="sRGB">
<feFlood flood-opacity="0" result="BackgroundImageFix"/>
<feColorMatrix in="SourceAlpha" type="matrix" values="0 0 0 0 0 0 0 0 0 0 0 0 0 0 0 0 0 0 127 0" result="hardAlpha"/>
<feOffset dy="4"/>
<feGaussianBlur stdDeviation="2"/>
<feComposite in2="hardAlpha" operator="out"/>
<feColorMatrix type="matrix" values="0 0 0 0 0 0 0 0 0 0 0 0 0 0 0 0 0 0 0.25 0"/>
<feBlend mode="normal" in2="BackgroundImageFix" result="effect1_dropShadow_5_20"/>
<feBlend mode="normal" in="SourceGraphic" in2="effect1_dropShadow_5_20" result="shape"/>
</filter>
<filter id="filter20_d_5_20" x="79.6922" y="402.072" width="54.368" height="76.928" filterUnits="userSpaceOnUse" color-interpolation-filters="sRGB">
<feFlood flood-opacity="0" result="BackgroundImageFix"/>
<feColorMatrix in="SourceAlpha" type="matrix" values="0 0 0 0 0 0 0 0 0 0 0 0 0 0 0 0 0 0 127 0" result="hardAlpha"/>
<feOffset dy="4"/>
<feGaussianBlur stdDeviation="2"/>
<feComposite in2="hardAlpha" operator="out"/>
<feColorMatrix type="matrix" values="0 0 0 0 0 0 0 0 0 0 0 0 0 0 0 0 0 0 0.25 0"/>
<feBlend mode="normal" in2="BackgroundImageFix" result="effect1_dropShadow_5_20"/>
<feBlend mode="normal" in="SourceGraphic" in2="effect1_dropShadow_5_20" result="shape"/>
</filter>
<filter id="filter21_d_5_20" x="6.47343" y="402.072" width="67.04" height="76.928" filterUnits="userSpaceOnUse" color-interpolation-filters="sRGB">
<feFlood flood-opacity="0" result="BackgroundImageFix"/>
<feColorMatrix in="SourceAlpha" type="matrix" values="0 0 0 0 0 0 0 0 0 0 0 0 0 0 0 0 0 0 127 0" result="hardAlpha"/>
<feOffset dy="4"/>
<feGaussianBlur stdDeviation="2"/>
<feComposite in2="hardAlpha" operator="out"/>
<feColorMatrix type="matrix" values="0 0 0 0 0 0 0 0 0 0 0 0 0 0 0 0 0 0 0.25 0"/>
<feBlend mode="normal" in2="BackgroundImageFix" result="effect1_dropShadow_5_20"/>
<feBlend mode="normal" in="SourceGraphic" in2="effect1_dropShadow_5_20" result="shape"/>
</filter>
<filter id="filter22_d_5_20" x="543.103" y="200.632" width="77.312" height="79.808" filterUnits="userSpaceOnUse" color-interpolation-filters="sRGB">
<feFlood flood-opacity="0" result="BackgroundImageFix"/>
<feColorMatrix in="SourceAlpha" type="matrix" values="0 0 0 0 0 0 0 0 0 0 0 0 0 0 0 0 0 0 127 0" result="hardAlpha"/>
<feOffset dy="4"/>
<feGaussianBlur stdDeviation="2"/>
<feComposite in2="hardAlpha" operator="out"/>
<feColorMatrix type="matrix" values="0 0 0 0 0 0 0 0 0 0 0 0 0 0 0 0 0 0 0.25 0"/>
<feBlend mode="normal" in2="BackgroundImageFix" result="effect1_dropShadow_5_20"/>
<feBlend mode="normal" in="SourceGraphic" in2="effect1_dropShadow_5_20" result="shape"/>
</filter>
<filter id="filter23_d_5_20" x="518.448" y="202.072" width="22.592" height="76.928" filterUnits="userSpaceOnUse" color-interpolation-filters="sRGB">
<feFlood flood-opacity="0" result="BackgroundImageFix"/>
<feColorMatrix in="SourceAlpha" type="matrix" values="0 0 0 0 0 0 0 0 0 0 0 0 0 0 0 0 0 0 127 0" result="hardAlpha"/>
<feOffset dy="4"/>
<feGaussianBlur stdDeviation="2"/>
<feComposite in2="hardAlpha" operator="out"/>
<feColorMatrix type="matrix" values="0 0 0 0 0 0 0 0 0 0 0 0 0 0 0 0 0 0 0.25 0"/>
<feBlend mode="normal" in2="BackgroundImageFix" result="effect1_dropShadow_5_20"/>
<feBlend mode="normal" in="SourceGraphic" in2="effect1_dropShadow_5_20" result="shape"/>
</filter>
<filter id="filter24_d_5_20" x="452.729" y="202.072" width="64.64" height="76.928" filterUnits="userSpaceOnUse" color-interpolation-filters="sRGB">
<feFlood flood-opacity="0" result="BackgroundImageFix"/>
<feColorMatrix in="SourceAlpha" type="matrix" values="0 0 0 0 0 0 0 0 0 0 0 0 0 0 0 0 0 0 127 0" result="hardAlpha"/>
<feOffset dy="4"/>
<feGaussianBlur stdDeviation="2"/>
<feComposite in2="hardAlpha" operator="out"/>
<feColorMatrix type="matrix" values="0 0 0 0 0 0 0 0 0 0 0 0 0 0 0 0 0 0 0.25 0"/>
<feBlend mode="normal" in2="BackgroundImageFix" result="effect1_dropShadow_5_20"/>
<feBlend mode="normal" in="SourceGraphic" in2="effect1_dropShadow_5_20" result="shape"/>
</filter>
<filter id="filter25_d_5_20" x="395.073" y="202.072" width="54.368" height="76.928" filterUnits="userSpaceOnUse" color-interpolation-filters="sRGB">
<feFlood flood-opacity="0" result="BackgroundImageFix"/>
<feColorMatrix in="SourceAlpha" type="matrix" values="0 0 0 0 0 0 0 0 0 0 0 0 0 0 0 0 0 0 127 0" result="hardAlpha"/>
<feOffset dy="4"/>
<feGaussianBlur stdDeviation="2"/>
<feComposite in2="hardAlpha" operator="out"/>
<feColorMatrix type="matrix" values="0 0 0 0 0 0 0 0 0 0 0 0 0 0 0 0 0 0 0.25 0"/>
<feBlend mode="normal" in2="BackgroundImageFix" result="effect1_dropShadow_5_20"/>
<feBlend mode="normal" in="SourceGraphic" in2="effect1_dropShadow_5_20" result="shape"/>
</filter>
<filter id="filter26_d_5_20" x="285.948" y="202.072" width="82.976" height="76.928" filterUnits="userSpaceOnUse" color-interpolation-filters="sRGB">
<feFlood flood-opacity="0" result="BackgroundImageFix"/>
<feColorMatrix in="SourceAlpha" type="matrix" values="0 0 0 0 0 0 0 0 0 0 0 0 0 0 0 0 0 0 127 0" result="hardAlpha"/>
<feOffset dy="4"/>
<feGaussianBlur stdDeviation="2"/>
<feComposite in2="hardAlpha" operator="out"/>
<feColorMatrix type="matrix" values="0 0 0 0 0 0 0 0 0 0 0 0 0 0 0 0 0 0 0.25 0"/>
<feBlend mode="normal" in2="BackgroundImageFix" result="effect1_dropShadow_5_20"/>
<feBlend mode="normal" in="SourceGraphic" in2="effect1_dropShadow_5_20" result="shape"/>
</filter>
<filter id="filter27_d_5_20" x="255.753" y="201.4" width="28.064" height="35.2624" filterUnits="userSpaceOnUse" color-interpolation-filters="sRGB">
<feFlood flood-opacity="0" result="BackgroundImageFix"/>
<feColorMatrix in="SourceAlpha" type="matrix" values="0 0 0 0 0 0 0 0 0 0 0 0 0 0 0 0 0 0 127 0" result="hardAlpha"/>
<feOffset dy="4"/>
<feGaussianBlur stdDeviation="2"/>
<feComposite in2="hardAlpha" operator="out"/>
<feColorMatrix type="matrix" values="0 0 0 0 0 0 0 0 0 0 0 0 0 0 0 0 0 0 0.25 0"/>
<feBlend mode="normal" in2="BackgroundImageFix" result="effect1_dropShadow_5_20"/>
<feBlend mode="normal" in="SourceGraphic" in2="effect1_dropShadow_5_20" result="shape"/>
</filter>
<filter id="filter28_d_5_20" x="231.385" y="202.072" width="22.592" height="76.928" filterUnits="userSpaceOnUse" color-interpolation-filters="sRGB">
<feFlood flood-opacity="0" result="BackgroundImageFix"/>
<feColorMatrix in="SourceAlpha" type="matrix" values="0 0 0 0 0 0 0 0 0 0 0 0 0 0 0 0 0 0 127 0" result="hardAlpha"/>
<feOffset dy="4"/>
<feGaussianBlur stdDeviation="2"/>
<feComposite in2="hardAlpha" operator="out"/>
<feColorMatrix type="matrix" values="0 0 0 0 0 0 0 0 0 0 0 0 0 0 0 0 0 0 0.25 0"/>
<feBlend mode="normal" in2="BackgroundImageFix" result="effect1_dropShadow_5_20"/>
<feBlend mode="normal" in="SourceGraphic" in2="effect1_dropShadow_5_20" result="shape"/>
</filter>
<filter id="filter29_d_5_20" x="179.096" y="253.432" width="29.504" height="39.584" filterUnits="userSpaceOnUse" color-interpolation-filters="sRGB">
<feFlood flood-opacity="0" result="BackgroundImageFix"/>
<feColorMatrix in="SourceAlpha" type="matrix" values="0 0 0 0 0 0 0 0 0 0 0 0 0 0 0 0 0 0 127 0" result="hardAlpha"/>
<feOffset dy="4"/>
<feGaussianBlur stdDeviation="2"/>
<feComposite in2="hardAlpha" operator="out"/>
<feColorMatrix type="matrix" values="0 0 0 0 0 0 0 0 0 0 0 0 0 0 0 0 0 0 0.25 0"/>
<feBlend mode="normal" in2="BackgroundImageFix" result="effect1_dropShadow_5_20"/>
<feBlend mode="normal" in="SourceGraphic" in2="effect1_dropShadow_5_20" result="shape"/>
</filter>
<filter id="filter30_d_5_20" x="124.451" y="202.072" width="71.552" height="76.928" filterUnits="userSpaceOnUse" color-interpolation-filters="sRGB">
<feFlood flood-opacity="0" result="BackgroundImageFix"/>
<feColorMatrix in="SourceAlpha" type="matrix" values="0 0 0 0 0 0 0 0 0 0 0 0 0 0 0 0 0 0 127 0" result="hardAlpha"/>
<feOffset dy="4"/>
<feGaussianBlur stdDeviation="2"/>
<feComposite in2="hardAlpha" operator="out"/>
<feColorMatrix type="matrix" values="0 0 0 0 0 0 0 0 0 0 0 0 0 0 0 0 0 0 0.25 0"/>
<feBlend mode="normal" in2="BackgroundImageFix" result="effect1_dropShadow_5_20"/>
<feBlend mode="normal" in="SourceGraphic" in2="effect1_dropShadow_5_20" result="shape"/>
</filter>
<filter id="filter31_d_5_20" x="73.3228" y="202.072" width="54.368" height="76.928" filterUnits="userSpaceOnUse" color-interpolation-filters="sRGB">
<feFlood flood-opacity="0" result="BackgroundImageFix"/>
<feColorMatrix in="SourceAlpha" type="matrix" values="0 0 0 0 0 0 0 0 0 0 0 0 0 0 0 0 0 0 127 0" result="hardAlpha"/>
<feOffset dy="4"/>
<feGaussianBlur stdDeviation="2"/>
<feComposite in2="hardAlpha" operator="out"/>
<feColorMatrix type="matrix" values="0 0 0 0 0 0 0 0 0 0 0 0 0 0 0 0 0 0 0.25 0"/>
<feBlend mode="normal" in2="BackgroundImageFix" result="effect1_dropShadow_5_20"/>
<feBlend mode="normal" in="SourceGraphic" in2="effect1_dropShadow_5_20" result="shape"/>
</filter>
<filter id="filter32_d_5_20" x="0.104" y="202.072" width="67.04" height="76.928" filterUnits="userSpaceOnUse" color-interpolation-filters="sRGB">
<feFlood flood-opacity="0" result="BackgroundImageFix"/>
<feColorMatrix in="SourceAlpha" type="matrix" values="0 0 0 0 0 0 0 0 0 0 0 0 0 0 0 0 0 0 127 0" result="hardAlpha"/>
<feOffset dy="4"/>
<feGaussianBlur stdDeviation="2"/>
<feComposite in2="hardAlpha" operator="out"/>
<feColorMatrix type="matrix" values="0 0 0 0 0 0 0 0 0 0 0 0 0 0 0 0 0 0 0.25 0"/>
<feBlend mode="normal" in2="BackgroundImageFix" result="effect1_dropShadow_5_20"/>
<feBlend mode="normal" in="SourceGraphic" in2="effect1_dropShadow_5_20" result="shape"/>
</filter>
</defs>
</svg>
